<svg width="88" height="86" viewBox="0 0 88 86" fill="none" xmlns="http://www.w3.org/2000/svg">
<rect width="88" height="86" rx="25" fill="#132271"/>
<path d="M20.1397 29.3086C20.1397 30.6367 20.4359 31.304 21.0284 31.3105C21.1326 31.3105 21.2953 31.2129 21.5167 31.0176C21.8878 30.7441 22.2003 30.5977 22.4542 30.5781C22.8708 30.5781 23.0987 30.7767 23.1378 31.1738C23.1573 31.4408 23.0336 31.6491 22.7667 31.7988C22.63 31.8704 22.4867 31.9062 22.337 31.9062C21.5948 31.9062 21.0577 31.8509 20.7257 31.7402C19.9119 31.4733 19.352 30.9264 19.046 30.0996C18.9093 29.7155 18.8409 29.3086 18.8409 28.8789C18.8409 27.6419 19.4203 26.8607 20.5792 26.5352C20.9372 26.431 21.3279 26.3789 21.7511 26.3789H29.1534C29.8695 26.3789 30.3318 26.2292 30.5401 25.9297C30.6768 25.7214 30.7452 25.4089 30.7452 24.9922H31.1553C31.4093 25.8451 31.406 26.4082 31.1456 26.6816C30.8852 26.9486 30.4522 27.1016 29.8468 27.1406H26.1553V35.959C26.1553 36.5579 26.1977 36.9486 26.2823 37.1309C26.3669 37.3066 26.5655 37.4271 26.878 37.4922L27.4444 37.5996V38H23.6553V37.5898L24.3292 37.4434C24.5701 37.3913 24.7198 37.3164 24.7784 37.2188C24.8305 37.1081 24.8565 36.8704 24.8565 36.5059V27.1406H21.6339C20.8787 27.1406 20.4066 27.5898 20.2178 28.4883C20.1658 28.7422 20.1397 29.0156 20.1397 29.3086ZM32.3175 32.4727C32.3175 30.7539 32.7927 29.3053 33.7432 28.127C34.7003 26.9421 35.96 26.3496 37.5225 26.3496C39.1957 26.3496 40.5303 26.903 41.5264 28.0098C42.529 29.11 43.0336 30.5358 43.0401 32.2871C43.0401 33.8431 42.5779 35.2298 41.6534 36.4473C40.7354 37.6647 39.404 38.2734 37.6593 38.2734C36.0642 38.2734 34.7751 37.7266 33.7921 36.6328C32.809 35.5326 32.3175 34.1458 32.3175 32.4727ZM33.7823 32.0918C33.7823 33.9603 34.1697 35.3372 34.9444 36.2227C35.7191 37.1016 36.6632 37.5443 37.7764 37.5508C39.0915 37.5508 40.0518 37.0625 40.6573 36.0859C41.2628 35.1029 41.5655 33.8952 41.5655 32.4629C41.5655 30.6204 41.1684 29.2565 40.3741 28.3711C39.5798 27.4857 38.5935 27.0397 37.4151 27.0332H37.4053C36.3116 27.0332 35.4327 27.502 34.7686 28.4395C34.1111 29.377 33.7823 30.5944 33.7823 32.0918ZM43.8995 27.082C43.8995 26.6198 44.2283 26.3854 44.8858 26.3789H50.3839V26.7891L49.8077 26.9062C49.4496 26.9779 49.2315 27.1211 49.1534 27.3359C49.0818 27.5508 49.046 27.9154 49.046 28.4297V31.9648L54.0753 27.5117C54.2901 27.3229 54.3455 27.1764 54.2413 27.0723C54.1371 26.9681 54.0004 26.903 53.8311 26.877L53.2452 26.7891V26.3789H57.0343V26.7793L56.585 26.8574C56.0837 26.9421 55.6117 27.1732 55.169 27.5508L50.6085 31.584L55.9014 36.9355C56.279 37.3197 56.6925 37.541 57.1417 37.5996V38H52.962V37.5898L53.6261 37.4434C53.8995 37.3652 54.0427 37.2969 54.0557 37.2383C54.0492 37.1536 53.932 36.9941 53.7042 36.7598L49.6026 32.4629L49.046 32.9512V35.959C49.046 36.5449 49.0981 36.9258 49.2022 37.1016C49.3064 37.2773 49.5115 37.401 49.8175 37.4727L50.3839 37.5996V38H46.5948V37.5703L47.2589 37.4238C47.4932 37.3717 47.63 37.3001 47.669 37.209C47.7146 37.1178 47.7374 36.8835 47.7374 36.5059V29.4648C47.7374 28.5794 47.669 27.9382 47.5323 27.541C47.3956 27.1374 47.1091 26.9323 46.6729 26.9258C46.4776 26.9258 46.2205 27.0527 45.9014 27.3066C45.4652 27.6582 45.0876 27.8372 44.7686 27.8438C44.4496 27.8438 44.225 27.7591 44.0948 27.5898C43.9646 27.4141 43.8995 27.2448 43.8995 27.082ZM57.4737 32.4727C57.4737 30.7539 57.949 29.3053 58.8995 28.127C59.8565 26.9421 61.1163 26.3496 62.6788 26.3496C64.352 26.3496 65.6866 26.903 66.6827 28.0098C67.6853 29.11 68.1899 30.5358 68.1964 32.2871C68.1964 33.8431 67.7341 35.2298 66.8096 36.4473C65.8917 37.6647 64.5603 38.2734 62.8155 38.2734C61.2205 38.2734 59.9314 37.7266 58.9483 36.6328C57.9652 35.5326 57.4737 34.1458 57.4737 32.4727ZM58.9386 32.0918C58.9386 33.9603 59.3259 35.3372 60.1007 36.2227C60.8754 37.1016 61.8194 37.5443 62.9327 37.5508C64.2478 37.5508 65.2081 37.0625 65.8136 36.0859C66.419 35.1029 66.7218 33.8952 66.7218 32.4629C66.7218 30.6204 66.3246 29.2565 65.5303 28.3711C64.7361 27.4857 63.7498 27.0397 62.5714 27.0332H62.5616C61.4678 27.0332 60.5889 27.502 59.9249 28.4395C59.2673 29.377 58.9386 30.5944 58.9386 32.0918ZM22.0928 57.9492V50.4297C22.0928 49.8372 22.044 49.4499 21.9464 49.2676C21.8487 49.0918 21.6469 48.9714 21.3409 48.9062L20.7647 48.7891V48.3789H24.8663C25.8819 48.3789 26.6729 48.6198 27.2393 49.1016C27.8057 49.5833 28.0922 50.2279 28.0987 51.0352C28.0987 51.8424 27.7797 52.526 27.1417 53.0859C26.8552 53.3398 26.546 53.5286 26.2139 53.6523C27.1059 53.737 27.7797 54.069 28.2354 54.6484C28.6912 55.2279 28.919 55.9538 28.919 56.8262C28.919 57.7051 28.5251 58.4538 27.7374 59.0723C26.9496 59.6908 25.807 60 24.3096 60H20.7647V59.5898L21.3311 59.4727C21.6892 59.401 21.904 59.2578 21.9757 59.043C22.0538 58.8281 22.0928 58.4635 22.0928 57.9492ZM24.2315 53.9648H23.4014V59.3945C24.9574 59.3945 26.0219 59.1602 26.5948 58.6914C27.1677 58.2227 27.4542 57.5228 27.4542 56.5918C27.4542 55.1204 26.7543 54.2708 25.3546 54.043C25.0421 53.9909 24.6677 53.9648 24.2315 53.9648ZM24.3585 48.9844H23.4014V53.3594H24.2608C25.4066 53.3594 26.1456 52.9134 26.4776 52.0215C26.5818 51.735 26.6339 51.429 26.6339 51.1035C26.6208 49.6973 25.8624 48.9909 24.3585 48.9844ZM39.9444 55.0293C39.9444 58.5514 38.4763 60.3158 35.5401 60.3223C33.4438 60.3223 32.1124 59.401 31.546 57.5586C31.3507 56.9271 31.253 56.2142 31.253 55.4199V50.4492C31.253 49.8438 31.1977 49.4564 31.087 49.2871C30.9828 49.1113 30.781 48.9909 30.4815 48.9258L29.9151 48.8086V48.3789H35.4229C35.8982 48.3789 36.2074 48.5221 36.3507 48.8086C36.3897 48.8997 36.4093 48.9941 36.4093 49.0918C36.4093 49.4434 36.2367 49.681 35.8917 49.8047C35.781 49.8438 35.6736 49.8633 35.5694 49.8633C35.2374 49.8633 34.9021 49.7298 34.5636 49.4629C34.2315 49.1895 34.0134 49.0332 33.9093 48.9941C33.8116 48.9551 33.7205 48.9355 33.6358 48.9355C33.0694 48.9355 32.7309 49.3522 32.6202 50.1855C32.5876 50.459 32.5714 50.8919 32.5714 51.4844V55.3809C32.5714 57.5944 33.3689 58.9128 34.9639 59.3359C35.3155 59.4271 35.6964 59.4727 36.1065 59.4727C37.4932 59.4727 38.4047 58.7207 38.8409 57.2168C39.0167 56.5983 39.1078 55.8919 39.1143 55.0977V50.4492C39.1143 49.8438 39.059 49.4564 38.9483 49.2871C38.8441 49.1113 38.6423 48.9909 38.3428 48.9258L37.7764 48.8086V48.3789H41.087V48.8281L40.4229 48.9648C40.1951 49.0104 40.0583 49.082 40.0128 49.1797C39.9672 49.2773 39.9444 49.5215 39.9444 49.9121V55.0293ZM41.6632 49.082C41.6632 48.6198 41.9919 48.3854 42.6495 48.3789H48.1475V48.7891L47.5714 48.9062C47.2133 48.9779 46.9952 49.1211 46.9171 49.3359C46.8455 49.5508 46.8096 49.9154 46.8096 50.4297V53.9648L51.8389 49.5117C52.0538 49.3229 52.1091 49.1764 52.005 49.0723C51.9008 48.9681 51.7641 48.903 51.5948 48.877L51.0089 48.7891V48.3789H54.7979V48.7793L54.3487 48.8574C53.8474 48.9421 53.3754 49.1732 52.9327 49.5508L48.3721 53.584L53.6651 58.9355C54.0427 59.3197 54.4561 59.541 54.9053 59.5996V60H50.7257V59.5898L51.3897 59.4434C51.6632 59.3652 51.8064 59.2969 51.8194 59.2383C51.8129 59.1536 51.6957 58.9941 51.4678 58.7598L47.3663 54.4629L46.8096 54.9512V57.959C46.8096 58.5449 46.8617 58.9258 46.9659 59.1016C47.0701 59.2773 47.2751 59.401 47.5811 59.4727L48.1475 59.5996V60H44.3585V59.5703L45.0225 59.4238C45.2569 59.3717 45.3936 59.3001 45.4327 59.209C45.4783 59.1178 45.5011 58.8835 45.5011 58.5059V51.4648C45.5011 50.5794 45.4327 49.9382 45.296 49.541C45.1593 49.1374 44.8728 48.9323 44.4366 48.9258C44.2413 48.9258 43.9841 49.0527 43.6651 49.3066C43.2289 49.6582 42.8513 49.8372 42.5323 49.8438C42.2133 49.8438 41.9887 49.7591 41.8585 49.5898C41.7283 49.4141 41.6632 49.2448 41.6632 49.082ZM65.2569 55.0293C65.2569 58.5514 63.7888 60.3158 60.8526 60.3223C58.7563 60.3223 57.4249 59.401 56.8585 57.5586C56.6632 56.9271 56.5655 56.2142 56.5655 55.4199V50.4492C56.5655 49.8438 56.5102 49.4564 56.3995 49.2871C56.2953 49.1113 56.0935 48.9909 55.794 48.9258L55.2276 48.8086V48.3789H60.7354C61.2107 48.3789 61.5199 48.5221 61.6632 48.8086C61.7022 48.8997 61.7218 48.9941 61.7218 49.0918C61.7218 49.4434 61.5492 49.681 61.2042 49.8047C61.0935 49.8438 60.9861 49.8633 60.8819 49.8633C60.5499 49.8633 60.2146 49.7298 59.8761 49.4629C59.544 49.1895 59.3259 49.0332 59.2218 48.9941C59.1241 48.9551 59.033 48.9355 58.9483 48.9355C58.3819 48.9355 58.0434 49.3522 57.9327 50.1855C57.9001 50.459 57.8839 50.8919 57.8839 51.4844V55.3809C57.8839 57.5944 58.6814 58.9128 60.2764 59.3359C60.628 59.4271 61.0089 59.4727 61.419 59.4727C62.8057 59.4727 63.7172 58.7207 64.1534 57.2168C64.3292 56.5983 64.4203 55.8919 64.4268 55.0977V50.4492C64.4268 49.8438 64.3715 49.4564 64.2608 49.2871C64.1567 49.1113 63.9548 48.9909 63.6553 48.9258L63.0889 48.8086V48.3789H66.3995V48.8281L65.7354 48.9648C65.5076 49.0104 65.3708 49.082 65.3253 49.1797C65.2797 49.2773 65.2569 49.5215 65.2569 49.9121V55.0293Z" fill="white"/>
</svg>
